<svg width="40" height="40" viewBox="0 0 40 40" fill="none" xmlns="http://www.w3.org/2000/svg">
<g clip-path="url(#clip0_2303_1240)">
<path d="M37.1209 2.73749e-05H2.87919C2.50063 -0.00162696 2.12549 0.0717156 1.77543 0.215821C1.42537 0.359927 1.10731 0.571942 0.839627 0.839627C0.571942 1.10731 0.359927 1.42537 0.215821 1.77543C0.0717156 2.12549 -0.00162696 2.50063 2.73749e-05 2.87919V37.1209C-0.00162696 37.4994 0.0717156 37.8746 0.215821 38.2246C0.359927 38.5747 0.571942 38.8927 0.839627 39.1604C1.10731 39.4281 1.42537 39.6401 1.77543 39.7842C2.12549 39.9283 2.50063 40.0017 2.87919 40H37.1209C37.4994 40.0017 37.8746 39.9283 38.2246 39.7842C38.5747 39.6401 38.8927 39.4281 39.1604 39.1604C39.4281 38.8927 39.6401 38.5747 39.7842 38.2246C39.9283 37.8746 40.0017 37.4994 40 37.1209V2.87919C40.0017 2.50063 39.9283 2.12549 39.7842 1.77543C39.6401 1.42537 39.4281 1.10731 39.1604 0.839627C38.8927 0.571942 38.5747 0.359927 38.2246 0.215821C37.8746 0.0717156 37.4994 -0.00162696 37.1209 2.73749e-05Z" fill="#0866FF"/>
<path d="M27.8417 26.0794L28.9625 20.0002H22.4042V17.8419C22.4042 14.6419 23.6833 13.3627 26.9625 13.3627C28.0042 13.3627 28.8042 13.3627 29.2833 13.4419V7.92106C28.4042 7.67939 26.1625 7.44189 24.9625 7.44189C18.2417 7.44189 15.2042 10.5627 15.2042 17.3627V20.0044H11.0458V26.0836H15.2042V40.0044H22.4042V26.0836H27.8458L27.8417 26.0794Z" fill="white"/>
</g>
<defs>
<clipPath id="clip0_2303_1240">
<rect width="40" height="40" fill="white"/>
</clipPath>
</defs>
</svg>
