<svg width="40" height="40" viewBox="0 0 40 40" fill="none" xmlns="http://www.w3.org/2000/svg">
<g clip-path="url(#clip0_2303_1386)">
<path d="M37.1392 0H2.86083C1.28084 0 0 1.28084 0 2.86083V37.1392C0 38.7192 1.28084 40 2.86083 40H37.1392C38.7192 40 40 38.7192 40 37.1392V2.86083C40 1.28084 38.7192 0 37.1392 0Z" fill="#F00000"/>
<path d="M33.325 15.0338C33.325 15.0338 33.0654 13.2004 32.2679 12.3942C31.5627 11.6829 30.6053 11.2786 29.6037 11.2692C25.8829 11 20.3012 11 20.3012 11H20.2896C20.2896 11 14.7083 11 10.9871 11.2692C9.98552 11.2786 9.02815 11.6829 8.32292 12.3942C7.52542 13.2013 7.26625 15.0338 7.26625 15.0338C7.10051 16.4624 7.01163 17.8989 7 19.3371V21.3546C7.01163 22.7928 7.10051 24.2293 7.26625 25.6579C7.26625 25.6579 7.52542 27.4912 8.32292 28.2975C9.33417 29.3562 10.6629 29.3229 11.2546 29.4338C13.3821 29.6379 20.2962 29.7008 20.2962 29.7008C20.2962 29.7008 25.8838 29.6925 29.6046 29.4237C30.6061 29.4141 31.5634 29.0099 32.2687 28.2988C33.0662 27.4917 33.3258 25.6592 33.3258 25.6592C33.4913 24.2305 33.5801 22.794 33.5917 21.3558V19.3371C33.5798 17.8989 33.4908 16.4624 33.325 15.0338ZM17.5504 23.7992V16.3279L24.735 20.0779L17.5504 23.7992Z" fill="white"/>
</g>
<defs>
<clipPath id="clip0_2303_1386">
<rect width="40" height="40" fill="white"/>
</clipPath>
</defs>
</svg>
