<svg width="40" height="40" viewBox="0 0 40 40" fill="none" xmlns="http://www.w3.org/2000/svg">
<g clip-path="url(#clip0_2303_1408)">
<path d="M37.1392 0H2.86083C1.28084 0 0 1.28084 0 2.86083V37.1392C0 38.7192 1.28084 40 2.86083 40H37.1392C38.7192 40 40 38.7192 40 37.1392V2.86083C40 1.28084 38.7192 0 37.1392 0Z" fill="#0A66C2"/>
<path d="M7.95167 15.8229H13.1208V32.4349H7.95167V15.8229ZM10.5392 7.56494C12.8983 7.56494 14.6225 10.3062 12.7058 12.7779C10.23 14.6195 7.53917 12.9029 7.53917 10.5591C7.53922 10.1656 7.61682 9.77605 7.76751 9.41259C7.91821 9.04912 8.13906 8.71892 8.41744 8.44086C8.69581 8.16279 9.02626 7.94231 9.38989 7.79201C9.75352 7.64172 10.1432 7.56456 10.5367 7.56494M16.3596 15.8229H21.3079V18.0937H21.3796C22.0688 16.7879 23.7517 15.4112 26.2638 15.4112C31.4933 15.4112 32.4583 18.8504 32.4583 23.3245V32.4349H27.2967V24.3558C27.2967 22.4291 27.2625 19.9512 24.6129 19.9512C21.9275 19.9512 21.5175 22.0516 21.5175 24.2179V32.4349H16.3596V15.8229Z" fill="white"/>
</g>
<defs>
<clipPath id="clip0_2303_1408">
<rect width="40" height="40" fill="white"/>
</clipPath>
</defs>
</svg>
